<?xml version="1.0" standalone="no"?>
<!DOCTYPE svg PUBLIC "-//W3C//DTD SVG 20010904//EN"
 "http://www.w3.org/TR/2001/REC-SVG-20010904/DTD/svg10.dtd">
<svg
  version="1.0"
  xmlns="http://www.w3.org/2000/svg"
  width="100%"
  height="100%"
  viewBox="0 0 300.000000 195.000000"
  preserveAspectRatio="xMidYMid meet"
>
  <metadata>
    Created by potrace 1.10, written by Peter Selinger 2001-2011
  </metadata>
  <g
    transform="translate(0.000000,195.000000) scale(0.100000,-0.100000)"
    fill="#000000"
    stroke="none"
  >
    <path
      d="M516 1653 c-31 -158 -59 -300 -62 -315 l-6 -28 60 0 c104 0 298 -47 337 -82 5 -4 322 -7 705 -7 382 1 684 3 670 6 -141 21 -645 106 -680 114 -107 24 -144 52 -400 304 -291 287 -293 288 -456 293 l-111 4 -57 -289z m317 227 c29 -16 130 -107 270 -246 303 -302 316 -310 607 -357 l155 -25 -498 -1 c-477 -1 -499 0 -536 19 -59 29 -176 59 -263 66 -62 6 -78 10 -78 23 0 17 98 516 106 539 3 11 26 13 97 10 75 -2 101 -8 140 -28z"
    />
    <path
      d="M310 1236 l0 -46 -54 0 c-50 0 -54 -2 -66 -30 -7 -17 -11 -53 -8 -85 5 -62 15 -55 -103 -70 -26 -3 -55 -12 -65 -20 -18 -13 -17 -14 11 -25 17 -6 59 -14 95 -17 l65 -5 0 -73 c0 -90 11 -105 76 -105 l49 0 0 -46 0 -47 163 6 c171 5 238 18 336 62 l53 25 771 0 770 0 146 26 c186 32 250 49 328 84 77 35 113 69 113 108 0 38 -29 64 -120 105 -87 40 -118 48 -311 82 l-143 25 -779 0 -778 0 -47 24 c-94 48 -148 58 -329 63 l-173 6 0 -47z m338 -2 c42 -9 107 -29 144 -45 l66 -29 788 0 788 0 -34 -29 -34 -28 32 -40 c44 -56 44 -113 1 -173 l-32 -44 27 -22 c14 -13 26 -26 26 -29 0 -3 -353 -5 -785 -5 l-786 0 -50 -26 c-76 -38 -200 -61 -338 -63 l-121 -2 0 27 c0 42 -26 64 -75 64 -51 0 -55 7 -55 95 0 69 -4 75 -60 86 l-35 7 31 1 c47 2 63 26 66 106 l3 70 47 3 c52 3 78 27 78 69 0 23 2 23 115 23 67 0 149 -7 193 -16z m1922 -151 c25 -36 36 -103 26 -156 -4 -20 -24 -54 -45 -78 l-39 -44 -53 19 c-30 11 -56 20 -58 22 -2 2 10 19 26 37 43 49 50 97 23 153 -12 24 -31 49 -43 56 -19 10 -15 13 39 33 55 20 61 21 80 6 12 -9 32 -31 44 -48z m155 16 c44 -10 114 -36 155 -56 62 -32 76 -43 78 -65 3 -22 -4 -31 -42 -53 -66 -39 -137 -64 -240 -85 -50 -10 -92 -17 -94 -16 -1 2 9 27 23 57 33 71 33 131 0 193 -14 26 -25 49 -25 51 0 6 49 -3 145 -26z"
    />
    <path
      d="M1525 730 l-680 -5 -63 -28 c-67 -29 -242 -61 -299 -55 -18 2 -33 2 -33 -2 0 -3 28 -146 62 -319 l63 -313 105 4 c160 6 163 8 446 288 287 285 310 299 511 330 202 31 557 91 588 100 26 7 26 8 5 7 -14 -1 -331 -4 -705 -7z m305 -34 c0 -4 -133 -28 -258 -47 -142 -21 -187 -53 -455 -318 -152 -151 -255 -245 -285 -261 -40 -21 -61 -24 -142 -25 l-94 0 -53 260 c-28 143 -52 270 -53 281 0 20 7 23 73 29 99 9 183 29 248 59 l54 24 483 1 c265 1 482 -1 482 -3z"
    />
  </g>
</svg>